<?xml version="1.0" encoding="UTF-8"?>
<svg xmlns="http://www.w3.org/2000/svg" xmlns:xlink="http://www.w3.org/1999/xlink" width="32px" height="32px" viewBox="0 0 32 32" version="1.1">
<g id="surface1">
<path style=" stroke:none;fill-rule:evenodd;fill:rgb(0%,0%,0%);fill-opacity:1;" d="M 3.8125 -0.015625 C 11.9375 -0.015625 20.0625 -0.015625 28.1875 -0.015625 C 30.253906 0.351562 31.519531 1.558594 31.984375 3.601562 C 31.984375 11.867188 31.984375 20.132812 31.984375 28.398438 C 31.671875 29.980469 30.773438 31.09375 29.285156 31.734375 C 28.992188 31.832031 28.695312 31.917969 28.398438 31.984375 C 20.132812 31.984375 11.867188 31.984375 3.601562 31.984375 C 1.558594 31.519531 0.351562 30.253906 -0.015625 28.1875 C -0.015625 20.0625 -0.015625 11.9375 -0.015625 3.8125 C 0.378906 1.65625 1.65625 0.378906 3.8125 -0.015625 Z M 3.8125 -0.015625 "/>
<path style=" stroke:none;fill-rule:evenodd;fill:rgb(99.607843%,99.607843%,99.607843%);fill-opacity:1;" d="M 14.8125 7.308594 C 16.316406 7.257812 17.808594 7.351562 19.292969 7.59375 C 20.164062 7.738281 20.945312 8.082031 21.636719 8.628906 C 22.261719 9.246094 22.640625 9.992188 22.777344 10.871094 C 22.871094 11.371094 22.910156 11.875 22.894531 12.382812 C 22.828125 12.539062 22.714844 12.640625 22.554688 12.691406 C 21.277344 12.714844 20.003906 12.714844 18.726562 12.691406 C 18.65625 12.660156 18.601562 12.605469 18.566406 12.53125 C 18.570312 11.464844 18.039062 10.898438 16.980469 10.824219 C 16.21875 10.769531 15.457031 10.769531 14.695312 10.824219 C 14.328125 10.839844 13.984375 10.925781 13.65625 11.089844 C 13.375 11.300781 13.222656 11.582031 13.199219 11.9375 C 13.164062 12.300781 13.203125 12.65625 13.316406 13.003906 C 13.433594 13.300781 13.648438 13.492188 13.953125 13.582031 C 14.222656 13.664062 14.5 13.710938 14.785156 13.730469 C 16.1875 13.742188 17.589844 13.75 18.996094 13.761719 C 19.753906 13.816406 20.496094 13.964844 21.21875 14.207031 C 22.226562 14.628906 22.894531 15.367188 23.222656 16.414062 C 23.613281 18.089844 23.632812 19.769531 23.28125 21.457031 C 23.046875 22.480469 22.480469 23.246094 21.574219 23.753906 C 20.714844 24.175781 19.804688 24.421875 18.847656 24.496094 C 16.882812 24.664062 14.914062 24.671875 12.945312 24.527344 C 12.101562 24.453125 11.28125 24.273438 10.484375 23.992188 C 9.46875 23.582031 8.792969 22.855469 8.453125 21.8125 C 8.203125 20.957031 8.105469 20.085938 8.15625 19.203125 C 8.222656 19.074219 8.328125 18.992188 8.46875 18.949219 C 9.890625 18.929688 11.3125 18.929688 12.738281 18.949219 C 12.800781 18.972656 12.855469 19.007812 12.902344 19.054688 C 12.898438 19.480469 12.96875 19.898438 13.109375 20.300781 C 13.277344 20.628906 13.539062 20.851562 13.894531 20.96875 C 14.519531 21.117188 15.152344 21.179688 15.792969 21.160156 C 16.484375 21.1875 17.164062 21.121094 17.839844 20.96875 C 18.347656 20.804688 18.628906 20.453125 18.683594 19.914062 C 18.703125 19.570312 18.703125 19.222656 18.683594 18.875 C 18.597656 18.269531 18.253906 17.894531 17.660156 17.75 C 17.476562 17.699219 17.289062 17.664062 17.097656 17.644531 C 16.070312 17.632812 15.042969 17.636719 14.011719 17.660156 C 12.933594 17.714844 11.875 17.589844 10.839844 17.289062 C 9.667969 16.867188 8.929688 16.054688 8.628906 14.84375 C 8.347656 13.496094 8.308594 12.140625 8.511719 10.78125 C 8.804688 9.191406 9.730469 8.179688 11.285156 7.742188 C 12.445312 7.441406 13.621094 7.296875 14.8125 7.308594 Z M 14.8125 7.308594 "/>
</g>
</svg>
