<?xml version="1.0" encoding="UTF-8"?>
<svg xmlns="http://www.w3.org/2000/svg" xmlns:xlink="http://www.w3.org/1999/xlink" width="36px" height="36px" viewBox="0 0 36 36" version="1.1">
<g id="surface1">
<path style=" stroke:none;fill-rule:evenodd;fill:rgb(0%,0%,0%);fill-opacity:1;" d="M 4.289062 -0.015625 C 13.429688 -0.015625 22.570312 -0.015625 31.710938 -0.015625 C 34.039062 0.394531 35.460938 1.75 35.984375 4.054688 C 35.984375 13.351562 35.984375 22.648438 35.984375 31.945312 C 35.628906 33.726562 34.617188 34.980469 32.945312 35.699219 C 32.613281 35.8125 32.28125 35.90625 31.945312 35.984375 C 22.648438 35.984375 13.351562 35.984375 4.054688 35.984375 C 1.753906 35.460938 0.394531 34.039062 -0.015625 31.710938 C -0.015625 22.570312 -0.015625 13.429688 -0.015625 4.289062 C 0.429688 1.863281 1.863281 0.429688 4.289062 -0.015625 Z M 4.289062 -0.015625 "/>
<path style=" stroke:none;fill-rule:evenodd;fill:rgb(99.607843%,99.607843%,99.607843%);fill-opacity:1;" d="M 16.664062 8.222656 C 18.355469 8.167969 20.035156 8.273438 21.703125 8.542969 C 22.6875 8.703125 23.566406 9.09375 24.339844 9.710938 C 25.042969 10.402344 25.472656 11.242188 25.625 12.226562 C 25.730469 12.789062 25.773438 13.359375 25.757812 13.929688 C 25.683594 14.105469 25.554688 14.222656 25.375 14.28125 C 23.9375 14.300781 22.503906 14.300781 21.070312 14.28125 C 20.984375 14.242188 20.925781 14.179688 20.886719 14.097656 C 20.890625 12.898438 20.292969 12.257812 19.101562 12.179688 C 18.246094 12.113281 17.386719 12.113281 16.53125 12.179688 C 16.121094 12.195312 15.730469 12.292969 15.363281 12.476562 C 15.050781 12.714844 14.875 13.03125 14.847656 13.429688 C 14.808594 13.839844 14.855469 14.238281 14.980469 14.628906 C 15.113281 14.964844 15.351562 15.179688 15.699219 15.28125 C 16.003906 15.371094 16.3125 15.425781 16.632812 15.449219 C 18.210938 15.457031 19.789062 15.46875 21.371094 15.480469 C 22.226562 15.542969 23.058594 15.710938 23.871094 15.980469 C 25.003906 16.460938 25.757812 17.289062 26.125 18.46875 C 26.566406 20.351562 26.585938 22.242188 26.191406 24.140625 C 25.929688 25.289062 25.289062 26.152344 24.273438 26.726562 C 23.304688 27.199219 22.28125 27.476562 21.203125 27.558594 C 18.992188 27.746094 16.777344 27.757812 14.5625 27.59375 C 13.613281 27.511719 12.691406 27.308594 11.792969 26.992188 C 10.652344 26.527344 9.890625 25.710938 9.507812 24.539062 C 9.226562 23.578125 9.117188 22.597656 9.175781 21.601562 C 9.253906 21.460938 9.371094 21.363281 9.527344 21.320312 C 11.128906 21.296875 12.726562 21.296875 14.328125 21.320312 C 14.398438 21.347656 14.460938 21.386719 14.511719 21.4375 C 14.511719 21.917969 14.589844 22.382812 14.746094 22.835938 C 14.9375 23.207031 15.234375 23.457031 15.632812 23.589844 C 16.332031 23.757812 17.042969 23.828125 17.765625 23.804688 C 18.542969 23.835938 19.3125 23.761719 20.070312 23.589844 C 20.644531 23.402344 20.960938 23.007812 21.019531 22.402344 C 21.042969 22.015625 21.042969 21.625 21.019531 21.238281 C 20.921875 20.554688 20.535156 20.132812 19.867188 19.96875 C 19.660156 19.910156 19.449219 19.871094 19.234375 19.851562 C 18.078125 19.835938 16.921875 19.839844 15.765625 19.867188 C 14.550781 19.929688 13.359375 19.789062 12.195312 19.453125 C 10.875 18.976562 10.046875 18.058594 9.710938 16.699219 C 9.394531 15.183594 9.347656 13.660156 9.574219 12.128906 C 9.90625 10.339844 10.945312 9.203125 12.695312 8.707031 C 14 8.371094 15.324219 8.210938 16.664062 8.222656 Z M 16.664062 8.222656 "/>
</g>
</svg>
